<svg width="30" height="30" viewBox="0 0 30 30" fill="none" xmlns="http://www.w3.org/2000/svg">
<path d="M8.67188 26.4844C9.0602 26.4844 9.375 26.1696 9.375 25.7812C9.375 25.3929 9.0602 25.0781 8.67188 25.0781C8.28355 25.0781 7.96875 25.3929 7.96875 25.7812C7.96875 26.1696 8.28355 26.4844 8.67188 26.4844Z" stroke="black" stroke-width="1.5" stroke-linecap="round" stroke-linejoin="round"/>
<path d="M18.5156 26.4844C18.904 26.4844 19.2188 26.1696 19.2188 25.7812C19.2188 25.3929 18.904 25.0781 18.5156 25.0781C18.1273 25.0781 17.8125 25.3929 17.8125 25.7812C17.8125 26.1696 18.1273 26.4844 18.5156 26.4844Z" stroke="black" stroke-width="1.5" stroke-linecap="round" stroke-linejoin="round"/>
<path d="M3.04688 11.0156H5.85938L7.96875 22.9688H19.2188" stroke="black" stroke-width="1.5" stroke-linecap="round" stroke-linejoin="round"/>
<path d="M7.96875 19.2188H18.9305C19.0118 19.2188 19.0906 19.1907 19.1535 19.1392C19.2164 19.0876 19.2595 19.0159 19.2754 18.9362L20.5411 12.6081C20.5513 12.557 20.55 12.5044 20.5374 12.4539C20.5248 12.4034 20.5012 12.3563 20.4682 12.3161C20.4352 12.2759 20.3936 12.2435 20.3466 12.2212C20.2995 12.199 20.2481 12.1875 20.1961 12.1875H6.5625" stroke="black" stroke-width="1.5" stroke-linecap="round" stroke-linejoin="round"/>
</svg>
