<svg width="40" height="26" viewBox="0 0 40 26" fill="none" xmlns="http://www.w3.org/2000/svg">
<path d="M13 25.0625C13.8284 25.0625 14.5 24.5728 14.5 23.9688C14.5 23.3647 13.8284 22.875 13 22.875C12.1716 22.875 11.5 23.3647 11.5 23.9688C11.5 24.5728 12.1716 25.0625 13 25.0625Z" stroke="black" stroke-width="1.5" stroke-linecap="round" stroke-linejoin="round"/>
<path d="M34 25.0625C34.8284 25.0625 35.5 24.5728 35.5 23.9688C35.5 23.3647 34.8284 22.875 34 22.875C33.1716 22.875 32.5 23.3647 32.5 23.9688C32.5 24.5728 33.1716 25.0625 34 25.0625Z" stroke="black" stroke-width="1.5" stroke-linecap="round" stroke-linejoin="round"/>
<path d="M1 1H7L11.5 19.5938H35.5" stroke="black" stroke-width="1.5" stroke-linecap="round" stroke-linejoin="round"/>
<path d="M11.5 13.7604H34.885C35.0585 13.7605 35.2266 13.7168 35.3608 13.6366C35.495 13.5565 35.5869 13.4449 35.6209 13.3209L38.3209 3.47714C38.3427 3.39776 38.3401 3.31585 38.3132 3.23731C38.2863 3.15877 38.2358 3.08557 38.1654 3.02298C38.095 2.96039 38.0064 2.90998 37.906 2.87539C37.8057 2.8408 37.696 2.82288 37.585 2.82294H8.5" stroke="black" stroke-width="1.5" stroke-linecap="round" stroke-linejoin="round"/>
</svg>
