<svg width="40" height="40" viewBox="0 0 40 40" fill="none" xmlns="http://www.w3.org/2000/svg">
<g clip-path="url(#clip0_83_3561)">
<path d="M33.3327 18.3333C32.9251 15.4003 31.5645 12.6827 29.4604 10.5991C27.3564 8.51551 24.6256 7.18149 21.6888 6.80255C18.752 6.4236 15.7721 7.02076 13.208 8.50203C10.644 9.98331 8.6381 12.2665 7.49935 15M6.66602 8.33329V15H13.3327" stroke="black" stroke-width="2" stroke-linecap="round" stroke-linejoin="round"/>
<path d="M6.66602 21.6666C7.07361 24.5996 8.43423 27.3172 10.5383 29.4008C12.6423 31.4844 15.3731 32.8184 18.3099 33.1974C21.2467 33.5763 24.2266 32.9792 26.7907 31.4979C29.3547 30.0166 31.3606 27.7334 32.4994 25M33.3327 31.6666V25H26.666" stroke="black" stroke-width="2" stroke-linecap="round" stroke-linejoin="round"/>
</g>
<defs>
<clipPath id="clip0_83_3561">
<rect width="40" height="40" fill="white"/>
</clipPath>
</defs>
</svg>
