<svg width="40" height="40" viewBox="0 0 40 40" fill="none" xmlns="http://www.w3.org/2000/svg">
<rect width="40" height="40" rx="20" fill="#DB4444"/>
<path d="M26.25 28.75V26.6667C26.25 25.5616 25.8637 24.5018 25.1761 23.7204C24.4884 22.939 23.5558 22.5 22.5833 22.5H16.1667C15.1942 22.5 14.2616 22.939 13.5739 23.7204C12.8863 24.5018 12.5 25.5616 12.5 26.6667V28.75" stroke="white" stroke-width="1.5" stroke-linecap="round" stroke-linejoin="round"/>
<path d="M20 18.75C22.0711 18.75 23.75 17.0711 23.75 15C23.75 12.9289 22.0711 11.25 20 11.25C17.9289 11.25 16.25 12.9289 16.25 15C16.25 17.0711 17.9289 18.75 20 18.75Z" stroke="white" stroke-width="1.5" stroke-linecap="round" stroke-linejoin="round"/>
</svg>
