<svg width="30" height="30" viewBox="0 0 30 30" fill="none" xmlns="http://www.w3.org/2000/svg">
<path d="M30 6.91797H0V9.22539H30V6.91797Z" fill="#F5F5F5"/>
<path d="M28.4346 2.30469H1.56775C0.998926 2.97195 0.561172 3.75436 0.294922 4.6124H29.7075C29.4412 3.75436 29.0035 2.97195 28.4346 2.30469Z" fill="#F5F5F5"/>
<path d="M30 11.5352H0V13.8426H30V11.5352Z" fill="#F5F5F5"/>
<path d="M30 16.1484H0V18.4559H30V16.1484Z" fill="#F5F5F5"/>
<path d="M30 20.7656H0V23.073H30V20.7656Z" fill="#F5F5F5"/>
<path d="M29.7075 25.3828H0.294922C0.561113 26.2409 0.998926 27.0232 1.56775 27.6905H28.4346C29.0035 27.0232 29.4412 26.2409 29.7075 25.3828Z" fill="#F5F5F5"/>
<path d="M23.4373 0H6.56234C4.56148 0 2.7701 0.895723 1.56641 2.30771H28.4332C27.2296 0.895723 25.4382 0 23.4373 0Z" fill="#FF4B55"/>
<path d="M30 9.23047H0V11.5379H30V9.23047Z" fill="#FF4B55"/>
<path d="M30 6.56035C30 5.88236 29.8972 5.22846 29.7063 4.61328H0.29373C0.102832 5.22846 0 5.88236 0 6.56035V6.92094H30V6.56035Z" fill="#FF4B55"/>
<path d="M30 13.8438H0V16.1512H30V13.8438Z" fill="#FF4B55"/>
<path d="M30 23.4387V23.0781H0V23.4387C0 24.1167 0.102832 24.7706 0.29373 25.3858H29.7063C29.8972 24.7706 30 24.1167 30 23.4387Z" fill="#FF4B55"/>
<path d="M28.4333 27.6914H1.56641C2.7701 29.1034 4.56148 29.9991 6.56234 29.9991H23.4373C25.4382 29.9991 27.2296 29.1034 28.4333 27.6914Z" fill="#FF4B55"/>
<path d="M30 18.4609H0V20.7684H30V18.4609Z" fill="#FF4B55"/>
<path d="M16.1538 0H6.5625C2.93813 0 0 2.93813 0 6.5625V16.1538H16.1538V0Z" fill="#41479B"/>
<path d="M1.74286 2.52219C1.72751 2.57076 1.78276 2.61096 1.82425 2.58131L2.14434 2.35256L2.46444 2.58131C2.50587 2.61096 2.56118 2.57076 2.54583 2.52219L2.42717 2.14707L2.7437 1.91334C2.78466 1.88305 2.76356 1.81807 2.71258 1.81766L2.31919 1.81461L2.25204 1.61328C2.08341 1.76029 1.92257 1.91592 1.76981 2.07922L1.86163 2.14707L1.74286 2.52219Z" fill="#F5F5F5"/>
<path d="M2.1948 4.55579L2.31925 4.92903L2.71265 4.93208C2.76357 4.93249 2.78472 4.99747 2.74376 5.02776L2.42724 5.26149L2.54589 5.63661C2.56124 5.68518 2.50599 5.72532 2.46451 5.69573L2.14441 5.46692L1.82431 5.69573C1.78288 5.72538 1.72757 5.68518 1.74292 5.63661L1.86158 5.26149L1.54505 5.02776C1.5041 4.99752 1.52519 4.93249 1.57611 4.93208L1.96951 4.92903L2.09396 4.55579C2.11031 4.50745 2.17869 4.50745 2.1948 4.55579Z" fill="#F5F5F5"/>
<path d="M2.1948 8.00891L2.31925 8.38215L2.71265 8.3852C2.76357 8.38561 2.78472 8.45059 2.74376 8.48088L2.42724 8.71461L2.54589 9.08973C2.56124 9.13831 2.50599 9.17844 2.46451 9.14885L2.14441 8.9201L1.82431 9.14885C1.78288 9.17844 1.72757 9.13831 1.74292 9.08973L1.86158 8.71461L1.54505 8.48088C1.5041 8.45065 1.52519 8.38561 1.57611 8.3852L1.96951 8.38215L2.09396 8.00891C2.11031 7.96057 2.17869 7.96057 2.1948 8.00891Z" fill="#F5F5F5"/>
<path d="M2.1948 11.1808L2.31925 11.554L2.71265 11.5571C2.76357 11.5575 2.78472 11.6225 2.74376 11.6528L2.42724 11.8865L2.54589 12.2616C2.56124 12.3102 2.50599 12.3503 2.46451 12.3207L2.14441 12.0919L1.82431 12.3207C1.78288 12.3503 1.72757 12.3102 1.74292 12.2616L1.86158 11.8865L1.54505 11.6528C1.5041 11.6225 1.52519 11.5575 1.57611 11.5571L1.96951 11.554L2.09396 11.1808C2.11031 11.1324 2.17869 11.1324 2.1948 11.1808Z" fill="#F5F5F5"/>
<path d="M2.1948 14.0675L2.31925 14.4407L2.71265 14.4438C2.76357 14.4442 2.78472 14.5092 2.74376 14.5395L2.42724 14.7732L2.54589 15.1483C2.56124 15.1969 2.50599 15.237 2.46451 15.2074L2.14441 14.9787L1.82431 15.2074C1.78288 15.237 1.72757 15.1969 1.74292 15.1483L1.86158 14.7732L1.54505 14.5395C1.5041 14.5092 1.52519 14.4442 1.57611 14.4438L1.96951 14.4407L2.09396 14.0675C2.11031 14.0192 2.17869 14.0192 2.1948 14.0675Z" fill="#F5F5F5"/>
<path d="M3.71025 2.91516L3.8347 3.2884L4.2281 3.29145C4.27902 3.29186 4.30017 3.35684 4.25921 3.38708L3.94269 3.62081L4.06134 3.99592C4.07669 4.0445 4.02144 4.08469 3.97995 4.05504L3.65997 3.82624L3.33988 4.05504C3.29845 4.08469 3.24314 4.0445 3.25849 3.99592L3.37714 3.62081L3.06068 3.38708C3.01972 3.35684 3.04081 3.2918 3.09173 3.29145L3.48513 3.2884L3.60958 2.91516C3.62576 2.86682 3.69413 2.86682 3.71025 2.91516Z" fill="#F5F5F5"/>
<path d="M3.71037 6.37219L3.83482 6.74543L4.22822 6.74848C4.27913 6.74889 4.30029 6.81387 4.25933 6.84417L3.94281 7.0779L4.06146 7.45301C4.07681 7.50159 4.02156 7.54178 3.98007 7.51213L3.65997 7.28333L3.33988 7.51213C3.29845 7.54178 3.24314 7.50159 3.25849 7.45301L3.37714 7.0779L3.06068 6.84417C3.01972 6.81393 3.04081 6.74889 3.09173 6.74848L3.48513 6.74543L3.60958 6.37219C3.62587 6.32385 3.69425 6.32385 3.71037 6.37219Z" fill="#F5F5F5"/>
<path d="M3.71037 9.6534L3.83482 10.0266L4.22822 10.0297C4.27913 10.0301 4.30029 10.0951 4.25933 10.1254L3.94281 10.3591L4.06146 10.7342C4.07681 10.7828 4.02156 10.8229 3.98007 10.7933L3.65997 10.5645L3.33988 10.7933C3.29845 10.823 3.24314 10.7828 3.25849 10.7342L3.37714 10.3591L3.06068 10.1254C3.01972 10.0951 3.04081 10.0301 3.09173 10.0297L3.48513 10.0266L3.60958 9.6534C3.62587 9.60512 3.69425 9.60512 3.71037 9.6534Z" fill="#F5F5F5"/>
<path d="M3.71037 12.5948L3.83482 12.9681L4.22822 12.9711C4.27913 12.9715 4.30029 13.0365 4.25933 13.0668L3.94281 13.3006L4.06146 13.6757C4.07681 13.7242 4.02156 13.7644 3.98007 13.7348L3.65997 13.506L3.33988 13.7348C3.29845 13.7644 3.24314 13.7242 3.25849 13.6757L3.37714 13.3006L3.06068 13.0668C3.01972 13.0366 3.04081 12.9715 3.09173 12.9711L3.48513 12.9681L3.60958 12.5948C3.62587 12.5465 3.69425 12.5465 3.71037 12.5948Z" fill="#F5F5F5"/>
<path d="M5.22599 1.44246L5.35044 1.8157L5.74384 1.81875C5.79476 1.81916 5.81591 1.88414 5.77495 1.91438L5.45843 2.14811L5.57708 2.52322C5.59243 2.5718 5.53718 2.61193 5.4957 2.58234L5.1756 2.35354L4.8555 2.58234C4.81408 2.61199 4.75876 2.5718 4.77411 2.52322L4.89277 2.14811L4.5763 1.91438C4.53535 1.88414 4.55644 1.8191 4.60736 1.81875L5.00076 1.8157L5.12521 1.44246C5.1415 1.39418 5.20988 1.39418 5.22599 1.44246Z" fill="#F5F5F5"/>
<path d="M5.22599 4.55579L5.35044 4.92903L5.74384 4.93208C5.79476 4.93249 5.81591 4.99747 5.77495 5.02776L5.45843 5.26149L5.57708 5.63661C5.59243 5.68518 5.53718 5.72532 5.4957 5.69573L5.1756 5.46692L4.8555 5.69573C4.81408 5.72538 4.75876 5.68518 4.77411 5.63661L4.89277 5.26149L4.5763 5.02776C4.53535 4.99752 4.55644 4.93249 4.60736 4.93208L5.00076 4.92903L5.12521 4.55579C5.1415 4.50745 5.20988 4.50745 5.22599 4.55579Z" fill="#F5F5F5"/>
<path d="M5.22599 8.00891L5.35044 8.38215L5.74384 8.3852C5.79476 8.38561 5.81591 8.45059 5.77495 8.48088L5.45843 8.71461L5.57708 9.08973C5.59243 9.13831 5.53718 9.17844 5.4957 9.14885L5.1756 8.9201L4.8555 9.14885C4.81408 9.17844 4.75876 9.13831 4.77411 9.08973L4.89277 8.71461L4.5763 8.48088C4.53535 8.45065 4.55644 8.38561 4.60736 8.3852L5.00076 8.38215L5.12521 8.00891C5.1415 7.96057 5.20988 7.96057 5.22599 8.00891Z" fill="#F5F5F5"/>
<path d="M5.22599 11.1808L5.35044 11.554L5.74384 11.5571C5.79476 11.5575 5.81591 11.6225 5.77495 11.6528L5.45843 11.8865L5.57708 12.2616C5.59243 12.3102 5.53718 12.3503 5.4957 12.3207L5.1756 12.0919L4.8555 12.3207C4.81408 12.3503 4.75876 12.3102 4.77411 12.2616L4.89277 11.8865L4.5763 11.6528C4.53535 11.6225 4.55644 11.5575 4.60736 11.5571L5.00076 11.554L5.12521 11.1808C5.1415 11.1324 5.20988 11.1324 5.22599 11.1808Z" fill="#F5F5F5"/>
<path d="M5.22599 14.0675L5.35044 14.4407L5.74384 14.4438C5.79476 14.4442 5.81591 14.5092 5.77495 14.5395L5.45843 14.7732L5.57708 15.1483C5.59243 15.1969 5.53718 15.237 5.4957 15.2074L5.1756 14.9787L4.8555 15.2074C4.81408 15.237 4.75876 15.1969 4.77411 15.1483L4.89277 14.7732L4.5763 14.5395C4.53535 14.5092 4.55644 14.4442 4.60736 14.4438L5.00076 14.4407L5.12521 14.0675C5.1415 14.0192 5.20988 14.0192 5.22599 14.0675Z" fill="#F5F5F5"/>
<path d="M6.74167 2.91516L6.86612 3.2884L7.25952 3.29145C7.31044 3.29186 7.33159 3.35684 7.29058 3.38708L6.97411 3.62081L7.09276 3.99592C7.10812 4.0445 7.05286 4.08469 7.01138 4.05504L6.69128 3.82624L6.37118 4.05504C6.32976 4.08469 6.27444 4.0445 6.2898 3.99592L6.40845 3.62081L6.09192 3.38708C6.05097 3.35684 6.07206 3.2918 6.12304 3.29145L6.51644 3.2884L6.64089 2.91516C6.65724 2.86682 6.72556 2.86682 6.74167 2.91516Z" fill="#F5F5F5"/>
<path d="M6.74167 6.37219L6.86612 6.74543L7.25952 6.74848C7.31044 6.74889 7.33159 6.81387 7.29058 6.84417L6.97411 7.0779L7.09276 7.45301C7.10812 7.50159 7.05286 7.54178 7.01138 7.51213L6.69128 7.28333L6.37118 7.51213C6.32976 7.54178 6.27444 7.50159 6.2898 7.45301L6.40845 7.0779L6.09192 6.84417C6.05097 6.81393 6.07206 6.74889 6.12304 6.74848L6.51644 6.74543L6.64089 6.37219C6.65724 6.32385 6.72556 6.32385 6.74167 6.37219Z" fill="#F5F5F5"/>
<path d="M6.74167 9.6534L6.86612 10.0266L7.25952 10.0297C7.31044 10.0301 7.33159 10.0951 7.29058 10.1254L6.97411 10.3591L7.09276 10.7342C7.10812 10.7828 7.05286 10.8229 7.01138 10.7933L6.69128 10.5645L6.37118 10.7933C6.32976 10.823 6.27444 10.7828 6.2898 10.7342L6.40845 10.3591L6.09192 10.1254C6.05097 10.0951 6.07206 10.0301 6.12304 10.0297L6.51644 10.0266L6.64089 9.6534C6.65724 9.60512 6.72556 9.60512 6.74167 9.6534Z" fill="#F5F5F5"/>
<path d="M6.74167 12.5948L6.86612 12.9681L7.25952 12.9711C7.31044 12.9715 7.33159 13.0365 7.29058 13.0668L6.97411 13.3006L7.09276 13.6757C7.10812 13.7242 7.05286 13.7644 7.01138 13.7348L6.69128 13.506L6.37118 13.7348C6.32976 13.7644 6.27444 13.7242 6.2898 13.6757L6.40845 13.3006L6.09192 13.0668C6.05097 13.0366 6.07206 12.9715 6.12304 12.9711L6.51644 12.9681L6.64089 12.5948C6.65724 12.5465 6.72556 12.5465 6.74167 12.5948Z" fill="#F5F5F5"/>
<path d="M8.25724 1.44246L8.38169 1.8157L8.77509 1.81875C8.82601 1.81916 8.84716 1.88414 8.80614 1.91438L8.48968 2.14811L8.60833 2.52322C8.62368 2.5718 8.56843 2.61193 8.52694 2.58234L8.20685 2.35354L7.88675 2.58234C7.84532 2.61199 7.79001 2.5718 7.80536 2.52322L7.92401 2.14811L7.60755 1.91438C7.56659 1.88414 7.58769 1.8191 7.63866 1.81875L8.03206 1.8157L8.15651 1.44246C8.1728 1.39418 8.24112 1.39418 8.25724 1.44246Z" fill="#F5F5F5"/>
<path d="M8.25718 4.55579L8.38163 4.92904L8.77503 4.93208C8.82595 4.93249 8.8471 4.99747 8.80608 5.02777L8.48962 5.2615L8.60833 5.63656C8.62368 5.68513 8.56843 5.72527 8.52694 5.69568L8.20685 5.46687L7.88675 5.69568C7.84532 5.72532 7.79001 5.68513 7.80536 5.63656L7.92401 5.26144L7.60755 5.02771C7.56659 4.99747 7.58769 4.93243 7.63866 4.93202L8.03206 4.92898L8.15651 4.55573C8.17274 4.50745 8.24106 4.50745 8.25718 4.55579Z" fill="#F5F5F5"/>
<path d="M8.25724 8.00891L8.38169 8.38215L8.77509 8.3852C8.82601 8.38561 8.84716 8.45059 8.80614 8.48088L8.48968 8.71461L8.60833 9.08973C8.62368 9.13831 8.56843 9.17844 8.52694 9.14885L8.20685 8.9201L7.88675 9.14885C7.84532 9.17844 7.79001 9.13831 7.80536 9.08973L7.92401 8.71461L7.60755 8.48088C7.56659 8.45065 7.58769 8.38561 7.63866 8.3852L8.03206 8.38215L8.15651 8.00891C8.1728 7.96057 8.24112 7.96057 8.25724 8.00891Z" fill="#F5F5F5"/>
<path d="M8.25724 11.1808L8.38169 11.554L8.77509 11.5571C8.82601 11.5575 8.84716 11.6225 8.80614 11.6528L8.48968 11.8865L8.60833 12.2616C8.62368 12.3102 8.56843 12.3503 8.52694 12.3207L8.20685 12.0919L7.88675 12.3207C7.84532 12.3503 7.79001 12.3102 7.80536 12.2616L7.92401 11.8865L7.60755 11.6528C7.56659 11.6225 7.58769 11.5575 7.63866 11.5571L8.03206 11.554L8.15651 11.1808C8.1728 11.1324 8.24112 11.1324 8.25724 11.1808Z" fill="#F5F5F5"/>
<path d="M8.25724 14.0675L8.38169 14.4407L8.77509 14.4438C8.82601 14.4442 8.84716 14.5092 8.80614 14.5395L8.48968 14.7732L8.60833 15.1483C8.62368 15.1969 8.56843 15.237 8.52694 15.2074L8.20685 14.9787L7.88675 15.2074C7.84532 15.237 7.79001 15.1969 7.80536 15.1483L7.92401 14.7732L7.60755 14.5395C7.56659 14.5092 7.58769 14.4442 7.63866 14.4438L8.03206 14.4407L8.15651 14.0675C8.1728 14.0192 8.24112 14.0192 8.25724 14.0675Z" fill="#F5F5F5"/>
<path d="M9.77097 2.91516L9.89542 3.2884L10.2888 3.29145C10.3397 3.29186 10.3609 3.35684 10.3199 3.38708L10.0034 3.62081L10.122 3.99592C10.1374 4.0445 10.082 4.08469 10.0406 4.05504L9.72052 3.82624L9.40042 4.05504C9.359 4.08469 9.30369 4.0445 9.31904 3.99592L9.43769 3.62081L9.12122 3.38708C9.08027 3.35684 9.10136 3.2918 9.15228 3.29145L9.54568 3.2884L9.67013 2.91516C9.68654 2.86682 9.75486 2.86682 9.77097 2.91516Z" fill="#F5F5F5"/>
<path d="M9.77097 6.37219L9.89542 6.74543L10.2888 6.74848C10.3397 6.74889 10.3609 6.81387 10.3199 6.84417L10.0034 7.0779L10.122 7.45301C10.1374 7.50159 10.082 7.54178 10.0406 7.51213L9.72052 7.28333L9.40042 7.51213C9.359 7.54178 9.30369 7.50159 9.31904 7.45301L9.43769 7.0779L9.12122 6.84417C9.08027 6.81393 9.10136 6.74889 9.15228 6.74848L9.54568 6.74543L9.67013 6.37219C9.68654 6.32385 9.75486 6.32385 9.77097 6.37219Z" fill="#F5F5F5"/>
<path d="M9.77097 9.6534L9.89542 10.0266L10.2888 10.0297C10.3397 10.0301 10.3609 10.0951 10.3199 10.1254L10.0034 10.3591L10.122 10.7342C10.1374 10.7828 10.082 10.8229 10.0406 10.7933L9.72052 10.5645L9.40042 10.7933C9.359 10.823 9.30369 10.7828 9.31904 10.7342L9.43769 10.3591L9.12122 10.1254C9.08027 10.0951 9.10136 10.0301 9.15228 10.0297L9.54568 10.0266L9.67013 9.6534C9.68654 9.60512 9.75486 9.60512 9.77097 9.6534Z" fill="#F5F5F5"/>
<path d="M9.77097 12.5948L9.89542 12.9681L10.2888 12.9711C10.3397 12.9715 10.3609 13.0365 10.3199 13.0668L10.0034 13.3006L10.122 13.6757C10.1374 13.7242 10.082 13.7644 10.0406 13.7348L9.72052 13.506L9.40042 13.7348C9.359 13.7644 9.30369 13.7242 9.31904 13.6757L9.43769 13.3006L9.12122 13.0668C9.08027 13.0366 9.10136 12.9715 9.15228 12.9711L9.54568 12.9681L9.67013 12.5948C9.68654 12.5465 9.75486 12.5465 9.77097 12.5948Z" fill="#F5F5F5"/>
<path d="M11.2867 1.44246L11.4111 1.8157L11.8045 1.81875C11.8554 1.81916 11.8766 1.88414 11.8356 1.91438L11.519 2.14811L11.6377 2.52322C11.653 2.5718 11.5977 2.61193 11.5563 2.58234L11.2362 2.35354L10.9161 2.58234C10.8747 2.61199 10.8194 2.5718 10.8347 2.52322L10.9534 2.14811L10.6368 1.91438C10.5959 1.88414 10.617 1.8191 10.668 1.81875L11.0614 1.8157L11.1858 1.44246C11.2022 1.39418 11.2705 1.39418 11.2867 1.44246Z" fill="#F5F5F5"/>
<path d="M11.2867 4.55579L11.4111 4.92903L11.8045 4.93208C11.8554 4.93249 11.8766 4.99747 11.8356 5.02776L11.519 5.26149L11.6377 5.63661C11.653 5.68518 11.5977 5.72532 11.5563 5.69573L11.2362 5.46692L10.9161 5.69573C10.8747 5.72538 10.8194 5.68518 10.8347 5.63661L10.9534 5.26149L10.6368 5.02776C10.5959 4.99752 10.617 4.93249 10.668 4.93208L11.0614 4.92903L11.1858 4.55579C11.2022 4.50745 11.2705 4.50745 11.2867 4.55579Z" fill="#F5F5F5"/>
<path d="M11.2867 8.00891L11.4111 8.38215L11.8045 8.3852C11.8554 8.38561 11.8766 8.45059 11.8356 8.48088L11.519 8.71461L11.6377 9.08973C11.653 9.13831 11.5977 9.17844 11.5563 9.14885L11.2362 8.9201L10.9161 9.14885C10.8747 9.17844 10.8194 9.13831 10.8347 9.08973L10.9534 8.71461L10.6368 8.48088C10.5959 8.45065 10.617 8.38561 10.668 8.3852L11.0614 8.38215L11.1858 8.00891C11.2022 7.96057 11.2705 7.96057 11.2867 8.00891Z" fill="#F5F5F5"/>
<path d="M11.2867 11.1808L11.4111 11.554L11.8045 11.5571C11.8554 11.5575 11.8766 11.6225 11.8356 11.6528L11.519 11.8865L11.6377 12.2616C11.653 12.3102 11.5977 12.3503 11.5563 12.3207L11.2362 12.0919L10.9161 12.3207C10.8747 12.3503 10.8194 12.3102 10.8347 12.2616L10.9534 11.8865L10.6368 11.6528C10.5959 11.6225 10.617 11.5575 10.668 11.5571L11.0614 11.554L11.1858 11.1808C11.2022 11.1324 11.2705 11.1324 11.2867 11.1808Z" fill="#F5F5F5"/>
<path d="M11.2867 14.0675L11.4111 14.4407L11.8045 14.4438C11.8554 14.4442 11.8766 14.5092 11.8356 14.5395L11.519 14.7732L11.6377 15.1483C11.653 15.1969 11.5977 15.237 11.5563 15.2074L11.2362 14.9787L10.9161 15.2074C10.8747 15.237 10.8194 15.1969 10.8347 15.1483L10.9534 14.7732L10.6368 14.5395C10.5959 14.5092 10.617 14.4442 10.668 14.4438L11.0614 14.4407L11.1858 14.0675C11.2022 14.0192 11.2705 14.0192 11.2867 14.0675Z" fill="#F5F5F5"/>
<path d="M12.8042 2.91516L12.9286 3.2884L13.3221 3.29145C13.373 3.29186 13.3942 3.35684 13.3531 3.38708L13.0366 3.62081L13.1553 3.99592C13.1706 4.0445 13.1153 4.08469 13.0739 4.05504L12.7538 3.82624L12.4337 4.05504C12.3923 4.08469 12.3369 4.0445 12.3523 3.99592L12.471 3.62081L12.1544 3.38708C12.1135 3.35684 12.1346 3.2918 12.1855 3.29145L12.5789 3.2884L12.7034 2.91516C12.7197 2.86682 12.7881 2.86682 12.8042 2.91516Z" fill="#F5F5F5"/>
<path d="M12.8042 6.37219L12.9286 6.74543L13.3221 6.74848C13.373 6.74889 13.3942 6.81387 13.3531 6.84417L13.0366 7.0779L13.1553 7.45301C13.1706 7.50159 13.1153 7.54178 13.0739 7.51213L12.7538 7.28333L12.4337 7.51213C12.3923 7.54178 12.3369 7.50159 12.3523 7.45301L12.471 7.0779L12.1544 6.84417C12.1135 6.81393 12.1346 6.74889 12.1855 6.74848L12.5789 6.74543L12.7034 6.37219C12.7197 6.32385 12.7881 6.32385 12.8042 6.37219Z" fill="#F5F5F5"/>
<path d="M12.8042 9.6534L12.9286 10.0266L13.3221 10.0297C13.373 10.0301 13.3942 10.0951 13.3531 10.1254L13.0366 10.3591L13.1553 10.7342C13.1706 10.7828 13.1153 10.8229 13.0739 10.7933L12.7538 10.5645L12.4337 10.7933C12.3923 10.823 12.3369 10.7828 12.3523 10.7342L12.471 10.3591L12.1544 10.1254C12.1135 10.0951 12.1346 10.0301 12.1855 10.0297L12.5789 10.0266L12.7034 9.6534C12.7197 9.60512 12.7881 9.60512 12.8042 9.6534Z" fill="#F5F5F5"/>
<path d="M12.8042 12.5948L12.9286 12.9681L13.3221 12.9711C13.373 12.9715 13.3942 13.0365 13.3531 13.0668L13.0366 13.3006L13.1553 13.6757C13.1706 13.7242 13.1153 13.7644 13.0739 13.7348L12.7538 13.506L12.4337 13.7348C12.3923 13.7644 12.3369 13.7242 12.3523 13.6757L12.471 13.3006L12.1544 13.0668C12.1135 13.0366 12.1346 12.9715 12.1855 12.9711L12.5789 12.9681L12.7034 12.5948C12.7197 12.5465 12.7881 12.5465 12.8042 12.5948Z" fill="#F5F5F5"/>
<path d="M14.3178 1.44246L14.4423 1.8157L14.8357 1.81875C14.8866 1.81916 14.9078 1.88414 14.8668 1.91438L14.5503 2.14811L14.6689 2.52322C14.6843 2.5718 14.629 2.61193 14.5876 2.58234L14.2675 2.35354L13.9474 2.58234C13.9059 2.61199 13.8506 2.5718 13.866 2.52322L13.9846 2.14811L13.6681 1.91438C13.6271 1.88414 13.6482 1.8191 13.6992 1.81875L14.0926 1.8157L14.217 1.44246C14.2334 1.39418 14.3017 1.39418 14.3178 1.44246Z" fill="#F5F5F5"/>
<path d="M14.3178 4.55579L14.4423 4.92903L14.8357 4.93208C14.8866 4.93249 14.9078 4.99747 14.8668 5.02776L14.5503 5.26149L14.6689 5.63661C14.6843 5.68518 14.629 5.72532 14.5876 5.69573L14.2675 5.46692L13.9474 5.69573C13.9059 5.72538 13.8506 5.68518 13.866 5.63661L13.9846 5.26149L13.6681 5.02776C13.6271 4.99752 13.6482 4.93249 13.6992 4.93208L14.0926 4.92903L14.217 4.55579C14.2334 4.50745 14.3017 4.50745 14.3178 4.55579Z" fill="#F5F5F5"/>
<path d="M14.3178 8.00891L14.4423 8.38215L14.8357 8.3852C14.8866 8.38561 14.9078 8.45059 14.8668 8.48088L14.5503 8.71461L14.6689 9.08973C14.6843 9.13831 14.629 9.17844 14.5876 9.14885L14.2675 8.9201L13.9474 9.14885C13.9059 9.17844 13.8506 9.13831 13.866 9.08973L13.9846 8.71461L13.6681 8.48088C13.6271 8.45065 13.6482 8.38561 13.6992 8.3852L14.0926 8.38215L14.217 8.00891C14.2334 7.96057 14.3017 7.96057 14.3178 8.00891Z" fill="#F5F5F5"/>
<path d="M14.3178 11.1808L14.4423 11.554L14.8357 11.5571C14.8866 11.5575 14.9078 11.6225 14.8668 11.6528L14.5503 11.8865L14.6689 12.2616C14.6843 12.3102 14.629 12.3503 14.5876 12.3207L14.2675 12.0919L13.9474 12.3207C13.9059 12.3503 13.8506 12.3102 13.866 12.2616L13.9846 11.8865L13.6681 11.6528C13.6271 11.6225 13.6482 11.5575 13.6992 11.5571L14.0926 11.554L14.217 11.1808C14.2334 11.1324 14.3017 11.1324 14.3178 11.1808Z" fill="#F5F5F5"/>
<path d="M14.3178 14.0675L14.4423 14.4407L14.8357 14.4438C14.8866 14.4442 14.9078 14.5092 14.8668 14.5395L14.5503 14.7732L14.6689 15.1483C14.6843 15.1969 14.629 15.237 14.5876 15.2074L14.2675 14.9787L13.9474 15.2074C13.9059 15.237 13.8506 15.1969 13.866 15.1483L13.9846 14.7732L13.6681 14.5395C13.6271 14.5092 13.6482 14.4442 13.6992 14.4438L14.0926 14.4407L14.217 14.0675C14.2334 14.0192 14.3017 14.0192 14.3178 14.0675Z" fill="#F5F5F5"/>
</svg>
