<svg width="30" height="30" viewBox="0 0 30 30" fill="none" xmlns="http://www.w3.org/2000/svg">
<path d="M6.5623 29.9995H23.4373C26.6997 29.9995 29.4056 27.6188 29.9137 24.5H0.0859375C0.594004 27.6188 3.29992 29.9995 6.5623 29.9995Z" fill="#41479B"/>
<path d="M23.4373 0H6.5623C3.29992 0 0.594004 2.38072 0.0859375 5.49949H29.9137C29.4056 2.38072 26.6997 0 23.4373 0Z" fill="#41479B"/>
<path d="M0.0861328 5.5C0.0297656 5.84605 0 6.20102 0 6.56301V23.438C0 23.8 0.0297656 24.155 0.0861328 24.501H29.9139C29.9702 24.155 30 23.8 30 23.438V6.56301C30 6.20102 29.9702 5.84605 29.9139 5.5H0.0861328Z" fill="#F5F5F5"/>
<path d="M18.6025 14.9967L20.4033 11.8775H16.8016L15.0005 8.75781L13.1994 11.8775H9.59766L11.3985 14.9967L9.59766 18.1159H13.1994L15.0005 21.2356L16.8016 18.1159H20.4033L18.6025 14.9967ZM18.6364 12.8976L18.0135 13.9766L17.3905 12.8976H18.6364ZM17.4246 14.9967L16.2127 17.0958H13.7883L12.5764 14.9967L13.7883 12.8976H16.2127L17.4246 14.9967ZM15.0005 10.7981L15.6237 11.8775H14.3773L15.0005 10.7981ZM11.3645 12.8976H12.6104L11.9875 13.9766L11.3645 12.8976ZM11.3645 17.0958L11.9875 16.0168L12.6104 17.0958H11.3645ZM15.0005 19.1953L14.3773 18.1159H15.6237L15.0005 19.1953ZM18.0135 16.0168L18.6364 17.0958H17.3906L18.0135 16.0168Z" fill="#41479B"/>
</svg>
